<svg width="63" height="63" viewBox="0 0 63 63" fill="none" xmlns="http://www.w3.org/2000/svg">
<path opacity="0.6" d="M63 31.5C63 48.897 48.897 63 31.5 63C14.103 63 0 48.897 0 31.5C0 14.103 14.103 0 31.5 0C48.897 0 63 14.103 63 31.5ZM4.725 31.5C4.725 46.2874 16.7126 58.275 31.5 58.275C46.2874 58.275 58.275 46.2874 58.275 31.5C58.275 16.7126 46.2874 4.725 31.5 4.725C16.7126 4.725 4.725 16.7126 4.725 31.5Z" fill="#E0E0E0"/>
<path d="M31.5 0C39.1706 9.14705e-08 46.5776 2.79887 52.3313 7.8715C58.0851 12.9441 61.7902 19.9419 62.7516 27.552C63.713 35.1621 61.8645 42.8615 57.553 49.2056C53.2415 55.5498 46.7633 60.1028 39.3337 62.0104C31.9041 63.918 24.0338 63.0491 17.1993 59.5667C10.3648 56.0843 5.03576 50.2278 2.21204 43.0959C-0.611683 35.964 -0.736053 28.0468 1.86226 20.8297C4.46057 13.6127 9.60301 7.59165 16.3248 3.89633L18.6011 8.03688C12.8876 11.1779 8.51649 16.2958 6.30792 22.4303C4.09935 28.5648 4.20507 35.2944 6.60523 41.3565C9.00539 47.4187 13.5351 52.3967 19.3444 55.3567C25.1537 58.3167 31.8435 59.0553 38.1587 57.4338C44.4738 55.8124 49.9803 51.9423 53.6451 46.5498C57.3099 41.1572 58.881 34.6128 58.0639 28.1442C57.2467 21.6756 54.0973 15.7275 49.2066 11.4158C44.3159 7.10404 38.02 4.725 31.5 4.725V0Z" fill="#FF7355"/>
</svg>
