<svg width="63" height="63" viewBox="0 0 63 64" fill="none" xmlns="http://www.w3.org/2000/svg">
<path opacity="0.6" d="M63 32.1147C63 49.5117 48.897 63.6147 31.5 63.6147C14.103 63.6147 0 49.5117 0 32.1147C0 14.7178 14.103 0.614746 31.5 0.614746C48.897 0.614746 63 14.7178 63 32.1147ZM4.725 32.1147C4.725 46.9022 16.7126 58.8897 31.5 58.8897C46.2874 58.8897 58.275 46.9022 58.275 32.1147C58.275 17.3273 46.2874 5.33974 31.5 5.33974C16.7126 5.33974 4.725 17.3273 4.725 32.1147Z" fill="#E0E0E0"/>
<path opacity="0.6" d="M31.5 0.614746C35.97 0.614746 40.3888 1.56609 44.4627 3.40554C48.5367 5.245 52.1725 7.93045 55.1285 11.2834C58.0845 14.6364 60.2931 18.5801 61.6075 22.8525C62.9218 27.1248 63.3118 31.628 62.7516 36.0628L58.0639 35.4706C58.5401 31.701 58.2086 27.8733 57.0914 24.2418C55.9742 20.6103 54.0969 17.2582 51.5842 14.4081C49.0716 11.5581 45.9812 9.27546 42.5183 7.71192C39.0554 6.14838 35.2995 5.33974 31.5 5.33974V0.614746Z" fill="#FF7355"/>
</svg>
