<svg width="96" height="96" viewBox="0 0 96 96" fill="none" xmlns="http://www.w3.org/2000/svg">
<g opacity="0.8" filter="url(#filter0_b_673_3896)">
<path d="M44 2.3094C46.4752 0.880338 49.5248 0.880339 52 2.3094L85.5692 21.6906C88.0444 23.1197 89.5692 25.7607 89.5692 28.6188V67.3812C89.5692 70.2393 88.0444 72.8803 85.5692 74.3094L52 93.6906C49.5248 95.1197 46.4752 95.1197 44 93.6906L10.4308 74.3094C7.95557 72.8803 6.43078 70.2393 6.43078 67.3812V28.6188C6.43078 25.7607 7.95557 23.1197 10.4308 21.6906L44 2.3094Z" fill="white"/>
</g>
<path d="M44.75 3.60844C46.7611 2.44733 49.2389 2.44733 51.25 3.60844L84.8192 22.9896C86.8303 24.1508 88.0692 26.2966 88.0692 28.6188V67.3812C88.0692 69.7034 86.8303 71.8493 84.8192 73.0104L51.25 92.3916C49.2389 93.5527 46.7611 93.5527 44.75 92.3916L11.1808 73.0104C9.16968 71.8493 7.93078 69.7034 7.93078 67.3812V28.6188C7.93078 26.2966 9.16967 24.1508 11.1808 22.9896L44.75 3.60844Z" stroke="#FF7355" stroke-width="3"/>
<path d="M44.75 3.60844C46.7611 2.44733 49.2389 2.44733 51.25 3.60844L84.8192 22.9896C86.8303 24.1508 88.0692 26.2966 88.0692 28.6188V67.3812C88.0692 69.7034 86.8303 71.8493 84.8192 73.0104L51.25 92.3916C49.2389 93.5527 46.7611 93.5527 44.75 92.3916L11.1808 73.0104C9.16968 71.8493 7.93078 69.7034 7.93078 67.3812V28.6188C7.93078 26.2966 9.16967 24.1508 11.1808 22.9896L44.75 3.60844Z" stroke="url(#paint0_linear_673_3896)" stroke-width="3"/>
<path d="M58.3099 51.8625L49.3292 46.6776V36.3076L58.3099 31.1226L67.2905 36.3076V46.6776L58.3099 51.8625Z" fill="#FF9D43" fill-opacity="0.1"/>
<path d="M49.329 65.8235L44.8387 63.1821V57.8994L49.329 55.258L53.8193 57.8994V63.1821L49.329 65.8235Z" fill="#FF9D43" fill-opacity="0.1"/>
<path d="M31.3676 37.9241L27.9999 35.943V31.981L31.3676 30L34.7354 31.981V35.943L31.3676 37.9241Z" fill="#FF9D43" fill-opacity="0.1"/>
<g clip-path="url(#clip0_673_3896)">
<path d="M69.0601 35.44C69.0101 35.04 68.8001 34.68 68.4901 34.44C66.4301 32.87 62.3201 29.7 61.4601 28.96C59.9001 27.59 55.7401 26.34 52.4901 27.39C52.1501 27.5 51.8701 27.73 51.6801 28.02V28.03C51.6101 28.08 51.5501 28.14 51.4901 28.21L46.8801 33.48C46.8101 33.55 46.7501 33.64 46.7001 33.73C45.6101 35.69 46.1701 38.6 48.4401 42.61C43.6101 40.88 40.3101 40.98 38.6501 42.88L35.3601 46.65L35.0301 47.02C34.9601 47.1 34.9001 47.19 34.8501 47.28C34.4901 47.92 34.3101 48.67 34.3101 49.52C34.3101 50.69 34.6501 52.05 35.3301 53.64C34.8801 53.34 34.4601 53.09 34.0701 52.89C33.4301 52.56 32.6401 52.73 32.2001 53.31L27.3101 59.66C27.0601 59.97 26.9601 60.37 27.0101 60.77C27.0601 61.16 27.2701 61.52 27.5901 61.76C29.9701 63.59 33.8101 66.55 34.6101 67.25C35.7701 68.26 38.3501 69.21 40.9301 69.21C41.7901 69.21 42.6401 69.1 43.4401 68.86H43.4501C43.5001 68.85 43.5401 68.83 43.5901 68.82C43.6401 68.8 43.6901 68.78 43.7401 68.76C43.8201 68.72 43.9001 68.68 43.9701 68.63C44.0001 68.61 44.0401 68.58 44.0701 68.55C44.1201 68.52 44.1601 68.48 44.2001 68.43C44.2201 68.42 44.2401 68.4 44.2601 68.38L44.2801 68.35L48.5401 63.48C50.2101 61.58 49.8601 58.3 47.4901 53.73C49.8801 54.7 51.8601 55.18 53.4601 55.18C54.7201 55.18 55.7401 54.88 56.5301 54.29C56.5401 54.28 56.5501 54.27 56.5601 54.26C56.6301 54.2 56.7001 54.14 56.7601 54.07L60.3801 49.93C60.6701 49.6 60.9001 49.22 61.0601 48.81C61.7201 47.22 61.4601 45.02 60.3001 42.25C60.9201 42.69 61.4901 43.06 62.0001 43.32C62.2201 43.43 62.4501 43.48 62.6901 43.48C63.1401 43.48 63.5801 43.28 63.8801 42.9L68.7701 36.55C69.0101 36.23 69.1201 35.83 69.0601 35.44ZM55.9601 40.23L56.3801 40.99C57.6001 43.25 58.1801 44.93 58.3501 46.1C58.5001 47.05 58.3901 47.66 58.1301 47.96L57.2801 48.92L55.9401 50.46C55.7001 49.74 55.4001 49 55.0501 48.25C54.4601 46.92 53.7301 45.58 52.9901 44.33C52.6401 43.74 52.3001 43.18 51.9601 42.65C48.8101 37.66 49.0801 35.8 49.2701 35.3L51.5201 32.72L51.9101 32.28C52.4601 33.63 53.3001 35.27 54.4701 37.46C54.9201 38.3 55.4101 39.22 55.9601 40.23ZM46.2801 61.51L44.5501 63.48L44.0901 64.01C43.5401 62.35 42.6501 60.53 41.6801 58.82C41.1701 57.9 40.6301 57.02 40.1101 56.2C38.2001 53.18 37.5501 51.3 37.3801 50.18C37.2601 49.46 37.3501 49.05 37.4201 48.85L38.7301 47.36L40.0701 45.83C40.3201 46.46 40.6401 47.16 41.0301 47.94C41.5601 49.03 42.2401 50.31 43.0701 51.85C43.4001 52.45 43.7501 53.1 44.1201 53.79L44.5301 54.54C46.7401 58.63 46.8501 60.85 46.2801 61.51ZM36.5901 64.99C35.7401 64.25 32.4201 61.69 30.6001 60.3L33.7601 56.2C35.2501 57.22 37.2701 58.96 39.3201 60.74C40.6901 63.24 41.3701 65.05 41.5801 66.18C39.5301 66.39 37.2201 65.55 36.5901 64.99ZM46.9901 50.26C46.4301 50 45.8301 49.74 45.2001 49.48C44.0201 47.26 43.1901 45.64 42.7301 44.38C43.9101 44.4 45.6601 44.75 48.0501 45.66L48.8401 45.97C49.5801 46.25 50.2601 46.51 50.9101 46.75C52.1401 48.92 52.9801 50.8 53.3301 52.17C52.2001 52.16 50.2401 51.75 46.9901 50.26ZM62.3201 40C60.8501 39 58.8701 37.3 56.8501 35.54C55.5301 33.07 54.7001 31.38 54.3301 30.11V30.04C56.4301 29.78 58.8401 30.65 59.4901 31.21C60.3201 31.94 63.6501 34.51 65.4701 35.91L62.3201 40Z" fill="#FF7355"/>
</g>
<defs>
<filter id="filter0_b_673_3896" x="-3.56934" y="-8.76245" width="103.139" height="113.525" filterUnits="userSpaceOnUse" color-interpolation-filters="sRGB">
<feFlood flood-opacity="0" result="BackgroundImageFix"/>
<feGaussianBlur in="BackgroundImageFix" stdDeviation="5"/>
<feComposite in2="SourceAlpha" operator="in" result="effect1_backgroundBlur_673_3896"/>
<feBlend mode="normal" in="SourceGraphic" in2="effect1_backgroundBlur_673_3896" result="shape"/>
</filter>
<linearGradient id="paint0_linear_673_3896" x1="39.3188" y1="67.3024" x2="76.5122" y2="19.4823" gradientUnits="userSpaceOnUse">
<stop stop-color="#FFCA85" stop-opacity="0"/>
<stop offset="1" stop-color="#FFC984"/>
</linearGradient>
<clipPath id="clip0_673_3896">
<rect width="42" height="42" fill="white" transform="translate(27 27)"/>
</clipPath>
</defs>
</svg>
