<svg width="354" height="152" viewBox="0 0 354 152" fill="none" xmlns="http://www.w3.org/2000/svg">
<path fill-rule="evenodd" clip-rule="evenodd" d="M57.8559 75.9998V55.7821L40.3462 45.6729L22.8364 55.7821L22.8364 76.0006L22.8364 76.0006L22.8364 96.2183L40.3462 106.328L57.8559 96.2183L57.8559 76.0006L57.8559 75.9998ZM57.8552 76.0002L40.3462 65.8913L22.8371 76.0002L40.3462 86.1091L57.8552 76.0002Z" fill="#0F4B70"/>
<path d="M123.98 60.7964L114.046 91.1634H106.497L99.8166 70.6006L92.919 91.1634H85.414L75.4363 60.7964H82.7243L89.5786 82.14L96.7365 60.7964H103.244L110.185 82.3136L117.256 60.7964H123.98Z" fill="#0F4B70"/>
<path d="M134.235 67.4771C137.85 67.4771 140.627 68.3447 142.565 70.08C144.502 71.7863 145.471 74.3748 145.471 77.8453V91.1634H139.137V88.2568C137.865 90.4259 135.493 91.5104 132.023 91.5104C130.23 91.5104 128.668 91.2067 127.338 90.5994C126.036 89.9921 125.038 89.1533 124.344 88.0833C123.65 87.0132 123.303 85.7985 123.303 84.4392C123.303 82.2702 124.113 80.5638 125.733 79.3202C127.381 78.0766 129.912 77.4548 133.324 77.4548H138.704C138.704 75.9799 138.255 74.852 137.359 74.0711C136.462 73.2613 135.117 72.8564 133.324 72.8564C132.081 72.8564 130.852 73.0589 129.637 73.4637C128.451 73.8397 127.439 74.3603 126.6 75.0255L124.171 70.2969C125.443 69.4004 126.962 68.7063 128.726 68.2146C130.519 67.7229 132.355 67.4771 134.235 67.4771ZM133.715 86.9554C134.872 86.9554 135.898 86.6951 136.795 86.1745C137.691 85.625 138.328 84.8297 138.704 83.7885V81.4025H134.062C131.285 81.4025 129.897 82.3136 129.897 84.1356C129.897 85.0032 130.23 85.6973 130.895 86.2179C131.589 86.7095 132.529 86.9554 133.715 86.9554Z" fill="#0F4B70"/>
<path d="M164.914 67.4771C167.806 67.4771 170.134 68.3447 171.898 70.08C173.692 71.8153 174.588 74.3892 174.588 77.8019V91.1634H167.821V78.843C167.821 76.9921 167.416 75.6184 166.606 74.7218C165.796 73.7963 164.625 73.3336 163.092 73.3336C161.386 73.3336 160.026 73.8686 159.014 74.9387C158.002 75.9799 157.496 77.5416 157.496 79.6239V91.1634H150.728V67.8242H157.192V70.5572C158.089 69.5739 159.202 68.8219 160.533 68.3014C161.863 67.7519 163.323 67.4771 164.914 67.4771Z" fill="#0F4B70"/>
<path d="M204.186 67.8242V87.259C204.186 91.5393 203.072 94.7206 200.845 96.8029C198.618 98.8852 195.365 99.9264 191.085 99.9264C188.829 99.9264 186.689 99.6516 184.664 99.1021C182.64 98.5526 180.962 97.7573 179.632 96.7162L182.322 91.8575C183.305 92.6672 184.548 93.3035 186.052 93.7662C187.556 94.2579 189.06 94.5037 190.564 94.5037C192.907 94.5037 194.627 93.9687 195.726 92.8986C196.854 91.8575 197.418 90.2668 197.418 88.1267V87.1289C195.654 89.0666 193.196 90.0354 190.043 90.0354C187.903 90.0354 185.937 89.5727 184.144 88.6472C182.379 87.6928 180.977 86.3625 179.936 84.6561C178.894 82.9498 178.374 80.9832 178.374 78.7563C178.374 76.5294 178.894 74.5627 179.936 72.8564C180.977 71.1501 182.379 69.8342 184.144 68.9087C185.937 67.9543 187.903 67.4771 190.043 67.4771C193.427 67.4771 196.001 68.5906 197.765 70.8175V67.8242H204.186ZM191.388 84.4826C193.181 84.4826 194.642 83.962 195.77 82.9209C196.927 81.8508 197.505 80.4626 197.505 78.7563C197.505 77.0499 196.927 75.6762 195.77 74.635C194.642 73.565 193.181 73.0299 191.388 73.0299C189.595 73.0299 188.12 73.565 186.963 74.635C185.807 75.6762 185.228 77.0499 185.228 78.7563C185.228 80.4626 185.807 81.8508 186.963 82.9209C188.12 83.962 189.595 84.4826 191.388 84.4826Z" fill="#0F4B70"/>
<path d="M246.394 60.7964V91.1634H239.366V78.7129H225.571V91.1634H218.543V60.7964H225.571V72.7696H239.366V60.7964H246.394Z" fill="#0F4B70"/>
<path d="M261.648 67.4771C265.263 67.4771 268.039 68.3447 269.977 70.08C271.914 71.7863 272.883 74.3748 272.883 77.8453V91.1634H266.55V88.2568C265.277 90.4259 262.906 91.5104 259.435 91.5104C257.642 91.5104 256.08 91.2067 254.75 90.5994C253.448 89.9921 252.451 89.1534 251.757 88.0833C251.062 87.0132 250.715 85.7985 250.715 84.4392C250.715 82.2702 251.525 80.5638 253.145 79.3202C254.793 78.0766 257.324 77.4548 260.737 77.4548H266.116C266.116 75.9799 265.668 74.852 264.771 74.0711C263.874 73.2613 262.53 72.8564 260.737 72.8564C259.493 72.8564 258.264 73.0589 257.049 73.4637C255.863 73.8397 254.851 74.3603 254.012 75.0255L251.583 70.2969C252.856 69.4004 254.374 68.7063 256.138 68.2146C257.931 67.7229 259.768 67.4771 261.648 67.4771ZM261.127 86.9554C262.284 86.9554 263.311 86.6951 264.207 86.1745C265.104 85.625 265.74 84.8297 266.116 83.7885V81.4025H261.474C258.698 81.4025 257.309 82.3136 257.309 84.1356C257.309 85.0032 257.642 85.6973 258.307 86.2179C259.001 86.7095 259.941 86.9554 261.127 86.9554Z" fill="#0F4B70"/>
<path d="M292.326 67.4771C295.218 67.4771 297.547 68.3447 299.311 70.08C301.104 71.8153 302 74.3892 302 77.8019V91.1634H295.233V78.843C295.233 76.9921 294.828 75.6184 294.018 74.7218C293.208 73.7963 292.037 73.3336 290.504 73.3336C288.798 73.3336 287.439 73.8686 286.426 74.9387C285.414 75.9799 284.908 77.5416 284.908 79.6239V91.1634H278.141V67.8242H284.604V70.5572C285.501 69.5739 286.614 68.8219 287.945 68.3014C289.275 67.7519 290.736 67.4771 292.326 67.4771Z" fill="#0F4B70"/>
<path d="M321.453 67.4771C324.345 67.4771 326.673 68.3447 328.437 70.08C330.23 71.8153 331.127 74.3892 331.127 77.8019V91.1634H324.359V78.843C324.359 76.9921 323.954 75.6184 323.145 74.7218C322.335 73.7963 321.164 73.3336 319.631 73.3336C317.924 73.3336 316.565 73.8686 315.553 74.9387C314.541 75.9799 314.035 77.5416 314.035 79.6239V91.1634H307.267V67.8242H313.731V70.5572C314.628 69.5739 315.741 68.8219 317.071 68.3014C318.402 67.7519 319.862 67.4771 321.453 67.4771Z" fill="#0F4B70"/>
</svg>
