<svg width="24" height="25" viewBox="0 0 24 25" fill="none" xmlns="http://www.w3.org/2000/svg">
<path d="M21.8018 9.32513C21.6284 9.60863 21.3528 9.83176 21.0217 9.95139V16.0806H4.9681V9.94771C4.63925 9.82635 4.36598 9.60264 4.19456 9.31927C4.07068 9.11446 4 8.87849 4 8.62746C4 7.844 4.68804 7.20661 5.53376 7.20654C6.37952 7.20654 7.06756 7.84394 7.06756 8.62736C7.06756 8.95215 6.94921 9.25167 6.75044 9.49114C6.72328 9.52387 6.69461 9.55548 6.66453 9.58588C6.59018 9.66104 6.50724 9.72879 6.41717 9.78781L7.45157 10.785C7.5012 10.8328 7.55262 10.8784 7.60571 10.9217C8.05869 11.2909 8.63276 11.4921 9.24384 11.4921C9.87226 11.4921 10.4616 11.2793 10.9202 10.8898C10.9598 10.8562 10.9985 10.8212 11.0361 10.785L12.1031 9.75642C12.0106 9.69091 11.9264 9.6159 11.8521 9.53299C11.793 9.46705 11.7403 9.3961 11.6946 9.32095C11.5701 9.11572 11.499 8.87912 11.499 8.62736C11.499 7.84391 12.187 7.20654 13.0328 7.20654C13.8786 7.20654 14.5666 7.84394 14.5666 8.62736C14.5666 8.89732 14.4848 9.14982 14.3431 9.36489C14.3139 9.40912 14.2822 9.45176 14.2482 9.49264C14.1546 9.60511 14.0432 9.7043 13.918 9.78657L14.9537 10.785C15.0028 10.8323 15.0538 10.8775 15.1063 10.9204C15.5595 11.2904 16.1341 11.4921 16.7459 11.4921C17.3593 11.4921 17.9353 11.2894 18.389 10.9176C18.4404 10.8755 18.4901 10.8313 18.5382 10.785L19.5768 9.7838C19.4849 9.72301 19.4006 9.6531 19.3253 9.5755C19.3005 9.54997 19.2768 9.52362 19.254 9.49648C19.0526 9.25614 18.9324 8.95459 18.9324 8.62739C18.9324 7.84394 19.6205 7.20658 20.4662 7.20658C21.312 7.20658 22 7.84397 22 8.62743C22 8.88087 21.9279 9.11897 21.8018 9.32513Z" fill="#FF7355"/>
<path fill-rule="evenodd" clip-rule="evenodd" d="M21.0219 17.2677V18.7205C21.0219 18.7615 21.0164 18.8012 21.0061 18.8392C20.949 19.0502 20.7428 19.2066 20.4972 19.2066H5.49293C5.24736 19.2066 5.04117 19.0502 4.98401 18.8392C4.97372 18.8012 4.96826 18.7615 4.96826 18.7205V17.2677H21.0219Z" fill="#FF7355"/>
</svg>
