<svg width="62" height="28" viewBox="0 0 62 28" fill="none" xmlns="http://www.w3.org/2000/svg">
<path fill-rule="evenodd" clip-rule="evenodd" d="M10.1341 14.2685V10.7272L7.06709 8.95652L4.0001 10.7272L4.0001 14.2687L4.0001 17.81L7.06709 19.5807L10.1341 17.81L10.1341 14.2687L10.1341 14.2685ZM10.1339 14.2686L7.06709 12.498L4.00023 14.2686L7.06709 16.0393L10.1339 14.2686Z" fill="white"/>
<path d="M21.7162 11.6055L19.9762 16.9245H18.654L17.4838 13.3228L16.2756 16.9245H14.9611L13.2134 11.6055H14.4899L15.6905 15.344L16.9443 11.6055H18.0841L19.2999 15.3744L20.5385 11.6055H21.7162Z" fill="white"/>
<path d="M23.5125 12.7757C24.1458 12.7757 24.6321 12.9276 24.9715 13.2316C25.3109 13.5305 25.4806 13.9838 25.4806 14.5917V16.9245H24.3712V16.4154C24.1483 16.7953 23.7329 16.9853 23.125 16.9853C22.8109 16.9853 22.5374 16.9321 22.3044 16.8257C22.0764 16.7193 21.9016 16.5724 21.7801 16.385C21.6585 16.1976 21.5977 15.9848 21.5977 15.7467C21.5977 15.3668 21.7395 15.0679 22.0232 14.8501C22.312 14.6323 22.7552 14.5233 23.353 14.5233H24.2952C24.2952 14.265 24.2167 14.0674 24.0597 13.9306C23.9026 13.7888 23.6671 13.7179 23.353 13.7179C23.1352 13.7179 22.9199 13.7533 22.7071 13.8243C22.4994 13.8901 22.3221 13.9813 22.1752 14.0978L21.7497 13.2696C21.9726 13.1125 22.2385 12.991 22.5475 12.9048C22.8616 12.8187 23.1833 12.7757 23.5125 12.7757ZM23.4214 16.1874C23.624 16.1874 23.8038 16.1419 23.9609 16.0507C24.1179 15.9544 24.2294 15.8151 24.2952 15.6327V15.2148H23.4822C22.9958 15.2148 22.7527 15.3744 22.7527 15.6935C22.7527 15.8455 22.8109 15.9671 22.9275 16.0583C23.049 16.1444 23.2137 16.1874 23.4214 16.1874Z" fill="white"/>
<path d="M28.8862 12.7757C29.3928 12.7757 29.8006 12.9276 30.1096 13.2316C30.4237 13.5355 30.5807 13.9864 30.5807 14.5841V16.9245H29.3953V14.7665C29.3953 14.4423 29.3244 14.2017 29.1826 14.0446C29.0407 13.8825 28.8355 13.8015 28.5671 13.8015C28.2682 13.8015 28.0301 13.8952 27.8528 14.0826C27.6755 14.265 27.5868 14.5385 27.5868 14.9033V16.9245H26.4015V12.8364H27.5336V13.3152C27.6907 13.1429 27.8857 13.0112 28.1187 12.92C28.3518 12.8238 28.6076 12.7757 28.8862 12.7757Z" fill="white"/>
<path d="M35.765 12.8364V16.2406C35.765 16.9904 35.57 17.5476 35.1799 17.9123C34.7898 18.2771 34.2199 18.4594 33.4702 18.4594C33.0751 18.4594 32.7002 18.4113 32.3456 18.3151C31.991 18.2188 31.6972 18.0795 31.4642 17.8971L31.9353 17.0461C32.1075 17.1879 32.3253 17.2994 32.5888 17.3804C32.8522 17.4665 33.1156 17.5096 33.379 17.5096C33.7893 17.5096 34.0908 17.4159 34.2833 17.2285C34.4808 17.0461 34.5796 16.7675 34.5796 16.3926V16.2178C34.2706 16.5572 33.84 16.7269 33.2878 16.7269C32.913 16.7269 32.5685 16.6459 32.2544 16.4838C31.9454 16.3166 31.6997 16.0836 31.5174 15.7847C31.335 15.4858 31.2438 15.1414 31.2438 14.7513C31.2438 14.3612 31.335 14.0168 31.5174 13.7179C31.6997 13.419 31.9454 13.1885 32.2544 13.0264C32.5685 12.8592 32.913 12.7757 33.2878 12.7757C33.8805 12.7757 34.3314 12.9707 34.6404 13.3608V12.8364H35.765ZM33.5234 15.7543C33.8375 15.7543 34.0933 15.6631 34.2908 15.4808C34.4935 15.2933 34.5948 15.0502 34.5948 14.7513C34.5948 14.4524 34.4935 14.2118 34.2908 14.0294C34.0933 13.842 33.8375 13.7483 33.5234 13.7483C33.2093 13.7483 32.951 13.842 32.7483 14.0294C32.5457 14.2118 32.4444 14.4524 32.4444 14.7513C32.4444 15.0502 32.5457 15.2933 32.7483 15.4808C32.951 15.6631 33.2093 15.7543 33.5234 15.7543Z" fill="white"/>
<path d="M43.1581 11.6055V16.9245H41.9271V14.7437H39.5108V16.9245H38.2798V11.6055H39.5108V13.7027H41.9271V11.6055H43.1581Z" fill="white"/>
<path d="M45.8299 12.7757C46.4631 12.7757 46.9494 12.9276 47.2888 13.2316C47.6283 13.5305 47.798 13.9838 47.798 14.5917V16.9245H46.6886V16.4154C46.4657 16.7953 46.0503 16.9853 45.4424 16.9853C45.1283 16.9853 44.8548 16.9321 44.6217 16.8257C44.3938 16.7193 44.219 16.5724 44.0974 16.385C43.9758 16.1976 43.9151 15.9848 43.9151 15.7467C43.9151 15.3668 44.0569 15.0679 44.3406 14.8501C44.6293 14.6323 45.0726 14.5233 45.6703 14.5233H46.6126C46.6126 14.265 46.5341 14.0674 46.377 13.9306C46.22 13.7888 45.9844 13.7179 45.6703 13.7179C45.4525 13.7179 45.2372 13.7533 45.0245 13.8243C44.8168 13.8901 44.6395 13.9813 44.4926 14.0978L44.067 13.2696C44.2899 13.1125 44.5559 12.991 44.8649 12.9048C45.179 12.8187 45.5006 12.7757 45.8299 12.7757ZM45.7387 16.1874C45.9414 16.1874 46.1212 16.1419 46.2782 16.0507C46.4353 15.9544 46.5467 15.8151 46.6126 15.6327V15.2148H45.7995C45.3132 15.2148 45.07 15.3744 45.07 15.6935C45.07 15.8455 45.1283 15.9671 45.2448 16.0583C45.3664 16.1444 45.531 16.1874 45.7387 16.1874Z" fill="white"/>
<path d="M51.2036 12.7757C51.7101 12.7757 52.1179 12.9276 52.4269 13.2316C52.741 13.5355 52.8981 13.9864 52.8981 14.5841V16.9245H51.7127V14.7665C51.7127 14.4423 51.6418 14.2017 51.4999 14.0446C51.3581 13.8825 51.1529 13.8015 50.8844 13.8015C50.5855 13.8015 50.3475 13.8952 50.1702 14.0826C49.9929 14.265 49.9042 14.5385 49.9042 14.9033V16.9245H48.7188V12.8364H49.851V13.3152C50.008 13.1429 50.2031 13.0112 50.4361 12.92C50.6691 12.8238 50.9249 12.7757 51.2036 12.7757Z" fill="white"/>
<path d="M56.3053 12.7757C56.8119 12.7757 57.2197 12.9276 57.5287 13.2316C57.8428 13.5355 57.9998 13.9864 57.9998 14.5841V16.9245H56.8144V14.7665C56.8144 14.4423 56.7435 14.2017 56.6017 14.0446C56.4598 13.8825 56.2547 13.8015 55.9862 13.8015C55.6873 13.8015 55.4492 13.8952 55.2719 14.0826C55.0946 14.265 55.006 14.5385 55.006 14.9033V16.9245H53.8206V12.8364H54.9528V13.3152C55.1098 13.1429 55.3048 13.0112 55.5379 12.92C55.7709 12.8238 56.0267 12.7757 56.3053 12.7757Z" fill="white"/>
</svg>
